<svg width="24" height="24" viewBox="0 0 24 24" fill="none" xmlns="http://www.w3.org/2000/svg">
<rect width="24" height="24" rx="12" fill="white"/>
<path d="M8.25065 13.2087L5.19178 10.2271C5.17279 10.2081 5.14717 10.1835 5.16616 10.1241C5.18564 10.0652 5.221 10.06 5.24711 10.0565L9.85134 9.38727L11.9101 5.21442C11.9219 5.19136 11.9378 5.15909 11.9998 5.15909C12.0623 5.15909 12.0776 5.19134 12.0894 5.21492L13.9673 9.01886L15.7801 6.45747L14.5638 3.99391C14.0785 3.01064 13.0963 2.3999 11.9998 2.3999C10.9038 2.3999 9.92108 3.01066 9.43586 3.99341L8.0186 6.86481L4.84997 7.32543C3.7653 7.48325 2.88093 8.22879 2.54225 9.27149C2.20304 10.3142 2.48025 11.4373 3.26522 12.2028L5.24809 14.1355L8.25065 13.2087Z" fill="#0356F2"/>
<path d="M21.458 9.2713C21.3314 8.8824 21.129 8.5345 20.8682 8.24347C20.4307 7.75414 19.8296 7.42417 19.1497 7.32528L16.3546 6.91895L14.5654 9.44705L18.7531 10.0563C18.7792 10.0604 18.8146 10.065 18.8341 10.1239C18.8531 10.1833 18.8274 10.2079 18.8084 10.2264L18.4303 10.5948L15.4769 13.4739L16.2634 18.0597C16.2702 18.0997 16.2634 18.116 16.2471 18.1361C16.2255 18.1611 16.1907 18.1796 16.1651 18.1796C16.1605 18.1796 16.1466 18.1796 16.1185 18.1652L15.4769 17.8281L18.642 19.5072C18.9735 18.9349 19.0975 18.26 18.9826 17.5939L18.4416 14.4376L20.7345 12.2021C21.5195 11.4371 21.7967 10.314 21.458 9.2713Z" fill="#0356F2"/>
<path d="M15.4771 17.8285L12.0005 16.0008L7.882 18.1657C7.87693 18.1687 7.87283 18.1702 7.86874 18.1718C7.84975 18.18 7.83895 18.1805 7.83543 18.1805C7.80924 18.1805 7.77494 18.1616 7.75341 18.1364C7.73704 18.117 7.73033 18.1006 7.73704 18.0601L8.44768 13.918L5.49177 14.8305L5.01777 17.5943C4.90408 18.2553 5.02547 18.9245 5.35033 19.4938C5.43489 19.6414 5.53221 19.7827 5.64394 19.9149C6.19267 20.5667 6.99154 20.9397 7.83543 20.9397C8.29961 20.9397 8.74742 20.8285 9.16609 20.6082L12.0005 19.1177L14.8346 20.6082C15.2531 20.8285 15.701 20.9402 16.1657 20.9397C17.0091 20.9397 17.8079 20.5667 18.3566 19.9149C18.4647 19.7868 18.56 19.65 18.6425 19.5076L15.4771 17.8285Z" fill="#0356F2"/>
</svg>
